<?xml version="1.0" encoding="UTF-8"?>
<!DOCTYPE svg PUBLIC "-//W3C//DTD SVG 1.1//EN"
    "http://www.w3.org/Graphics/SVG/1.1/DTD/svg11.dtd">
<svg xmlns="http://www.w3.org/2000/svg" height="276.3407" stroke-opacity="1" viewBox="0 0 1200 276" font-size="1" width="1200.0000" xmlns:xlink="http://www.w3.org/1999/xlink" stroke="rgb(0,0,0)" version="1.1">
  <defs>
  </defs>
  <defs>
  </defs>
  <g stroke-linejoin="miter" stroke-opacity="1.0" fill-opacity="0.0" stroke="rgb(0,0,0)" stroke-width="2.3034194852265046" fill="rgb(0,0,0)" stroke-linecap="butt" stroke-miterlimit="10.0">
    <path d="M 600.0000,34.9297 l 275.3083,68.8271 "/>
  </g>
  <defs>
  </defs>
  <g stroke-linejoin="miter" stroke-opacity="1.0" fill-opacity="0.0" stroke="rgb(0,0,0)" stroke-width="2.3034194852265046" fill="rgb(0,0,0)" stroke-linecap="butt" stroke-miterlimit="10.0">
    <path d="M 600.0000,34.9297 l -275.3083,68.8271 "/>
  </g>
  <defs>
  </defs>
  <g stroke-linejoin="miter" stroke-opacity="1.0" fill-opacity="0.0" stroke="rgb(0,0,0)" stroke-width="2.3034194852265046" fill="rgb(0,0,0)" stroke-linecap="butt" stroke-miterlimit="10.0">
    <path d="M 875.3083,103.7568 l 137.6541,68.8271 "/>
  </g>
  <defs>
  </defs>
  <g stroke-linejoin="miter" stroke-opacity="1.0" fill-opacity="0.0" stroke="rgb(0,0,0)" stroke-width="2.3034194852265046" fill="rgb(0,0,0)" stroke-linecap="butt" stroke-miterlimit="10.0">
    <path d="M 875.3083,103.7568 l -137.6541,68.8271 "/>
  </g>
  <defs>
  </defs>
  <g stroke-linejoin="miter" stroke-opacity="1.0" fill-opacity="0.0" stroke="rgb(0,0,0)" stroke-width="2.3034194852265046" fill="rgb(0,0,0)" stroke-linecap="butt" stroke-miterlimit="10.0">
    <path d="M 1012.9624,172.5839 l 68.8271,68.8271 "/>
  </g>
  <defs>
  </defs>
  <g stroke-linejoin="miter" stroke-opacity="1.0" fill-opacity="0.0" stroke="rgb(0,0,0)" stroke-width="2.3034194852265046" fill="rgb(0,0,0)" stroke-linecap="butt" stroke-miterlimit="10.0">
    <path d="M 1012.9624,172.5839 l -68.8271,68.8271 "/>
  </g>
  <defs>
  </defs>
  <g stroke-linejoin="miter" stroke-opacity="1.0" fill-opacity="1.0" stroke="rgb(0,0,0)" stroke-width="2.3034194852265046" fill="rgb(255,215,0)" stroke-linecap="butt" stroke-miterlimit="10.0">
    <path d="M 1145.4545,253.4557 v -24.0895 c 0.0000,-5.7018 -4.6222,-10.3241 -10.3241 -10.3241h -106.6820 c -5.7018,-0.0000 -10.3241,4.6222 -10.3241 10.3241v 24.0895 c -0.0000,5.7018 4.6222,10.3241 10.3241 10.3241h 106.6820 c 5.7018,0.0000 10.3241,-4.6222 10.3241 -10.3241Z"/>
  </g>
  <defs>
  </defs>
  <g stroke-linejoin="miter" stroke-opacity="1.0" fill-opacity="1.0" font-size="34.41353599082305px" stroke="rgb(0,0,0)" stroke-width="2.3034194852265046" fill="rgb(0,0,0)" stroke-linecap="butt" stroke-miterlimit="10.0">
    <text dominant-baseline="middle" transform="matrix(1.0000,0.0000,0.0000,1.0000,1081.7895,241.4110)" stroke="none" text-anchor="middle">111 -&gt; H
    </text>
  </g>
  <defs>
  </defs>
  <g stroke-linejoin="miter" stroke-opacity="1.0" fill-opacity="1.0" stroke="rgb(0,0,0)" stroke-width="2.3034194852265046" fill="rgb(255,215,0)" stroke-linecap="butt" stroke-miterlimit="10.0">
    <path d="M 1007.8004,253.4557 v -24.0895 c 0.0000,-5.7018 -4.6222,-10.3241 -10.3241 -10.3241h -106.6820 c -5.7018,-0.0000 -10.3241,4.6222 -10.3241 10.3241v 24.0895 c -0.0000,5.7018 4.6222,10.3241 10.3241 10.3241h 106.6820 c 5.7018,0.0000 10.3241,-4.6222 10.3241 -10.3241Z"/>
  </g>
  <defs>
  </defs>
  <g stroke-linejoin="miter" stroke-opacity="1.0" fill-opacity="1.0" font-size="34.41353599082305px" stroke="rgb(0,0,0)" stroke-width="2.3034194852265046" fill="rgb(0,0,0)" stroke-linecap="butt" stroke-miterlimit="10.0">
    <text dominant-baseline="middle" transform="matrix(1.0000,0.0000,0.0000,1.0000,944.1354,241.4110)" stroke="none" text-anchor="middle">110 -&gt; G
    </text>
  </g>
  <defs>
  </defs>
  <g stroke-linejoin="miter" stroke-opacity="1.0" fill-opacity="1.0" stroke="rgb(0,0,0)" stroke-width="2.3034194852265046" fill="rgb(255,215,0)" stroke-linecap="butt" stroke-miterlimit="10.0">
    <path d="M 1076.6275,184.6286 v -24.0895 c 0.0000,-5.7018 -4.6222,-10.3241 -10.3241 -10.3241h -106.6820 c -5.7018,-0.0000 -10.3241,4.6222 -10.3241 10.3241v 24.0895 c -0.0000,5.7018 4.6222,10.3241 10.3241 10.3241h 106.6820 c 5.7018,0.0000 10.3241,-4.6222 10.3241 -10.3241Z"/>
  </g>
  <defs>
  </defs>
  <g stroke-linejoin="miter" stroke-opacity="1.0" fill-opacity="1.0" font-size="34.41353599082305px" stroke="rgb(0,0,0)" stroke-width="2.3034194852265046" fill="rgb(0,0,0)" stroke-linecap="butt" stroke-miterlimit="10.0">
    <text dominant-baseline="middle" transform="matrix(1.0000,0.0000,0.0000,1.0000,1012.9624,172.5839)" stroke="none" text-anchor="middle">0 | 1
    </text>
  </g>
  <defs>
  </defs>
  <g stroke-linejoin="miter" stroke-opacity="1.0" fill-opacity="0.0" stroke="rgb(0,0,0)" stroke-width="2.3034194852265046" fill="rgb(0,0,0)" stroke-linecap="butt" stroke-miterlimit="10.0">
    <path d="M 737.6541,172.5839 l 68.8271,68.8271 "/>
  </g>
  <defs>
  </defs>
  <g stroke-linejoin="miter" stroke-opacity="1.0" fill-opacity="0.0" stroke="rgb(0,0,0)" stroke-width="2.3034194852265046" fill="rgb(0,0,0)" stroke-linecap="butt" stroke-miterlimit="10.0">
    <path d="M 737.6541,172.5839 l -68.8271,68.8271 "/>
  </g>
  <defs>
  </defs>
  <g stroke-linejoin="miter" stroke-opacity="1.0" fill-opacity="1.0" stroke="rgb(0,0,0)" stroke-width="2.3034194852265046" fill="rgb(255,215,0)" stroke-linecap="butt" stroke-miterlimit="10.0">
    <path d="M 870.1463,253.4557 v -24.0895 c 0.0000,-5.7018 -4.6222,-10.3241 -10.3241 -10.3241h -106.6820 c -5.7018,-0.0000 -10.3241,4.6222 -10.3241 10.3241v 24.0895 c -0.0000,5.7018 4.6222,10.3241 10.3241 10.3241h 106.6820 c 5.7018,0.0000 10.3241,-4.6222 10.3241 -10.3241Z"/>
  </g>
  <defs>
  </defs>
  <g stroke-linejoin="miter" stroke-opacity="1.0" fill-opacity="1.0" font-size="34.41353599082305px" stroke="rgb(0,0,0)" stroke-width="2.3034194852265046" fill="rgb(0,0,0)" stroke-linecap="butt" stroke-miterlimit="10.0">
    <text dominant-baseline="middle" transform="matrix(1.0000,0.0000,0.0000,1.0000,806.4812,241.4110)" stroke="none" text-anchor="middle">101 -&gt; F
    </text>
  </g>
  <defs>
  </defs>
  <g stroke-linejoin="miter" stroke-opacity="1.0" fill-opacity="1.0" stroke="rgb(0,0,0)" stroke-width="2.3034194852265046" fill="rgb(255,215,0)" stroke-linecap="butt" stroke-miterlimit="10.0">
    <path d="M 732.4921,253.4557 v -24.0895 c 0.0000,-5.7018 -4.6222,-10.3241 -10.3241 -10.3241h -106.6820 c -5.7018,-0.0000 -10.3241,4.6222 -10.3241 10.3241v 24.0895 c -0.0000,5.7018 4.6222,10.3241 10.3241 10.3241h 106.6820 c 5.7018,0.0000 10.3241,-4.6222 10.3241 -10.3241Z"/>
  </g>
  <defs>
  </defs>
  <g stroke-linejoin="miter" stroke-opacity="1.0" fill-opacity="1.0" font-size="34.41353599082305px" stroke="rgb(0,0,0)" stroke-width="2.3034194852265046" fill="rgb(0,0,0)" stroke-linecap="butt" stroke-miterlimit="10.0">
    <text dominant-baseline="middle" transform="matrix(1.0000,0.0000,0.0000,1.0000,668.8271,241.4110)" stroke="none" text-anchor="middle">100 -&gt; E
    </text>
  </g>
  <defs>
  </defs>
  <g stroke-linejoin="miter" stroke-opacity="1.0" fill-opacity="1.0" stroke="rgb(0,0,0)" stroke-width="2.3034194852265046" fill="rgb(255,215,0)" stroke-linecap="butt" stroke-miterlimit="10.0">
    <path d="M 801.3192,184.6286 v -24.0895 c 0.0000,-5.7018 -4.6222,-10.3241 -10.3241 -10.3241h -106.6820 c -5.7018,-0.0000 -10.3241,4.6222 -10.3241 10.3241v 24.0895 c -0.0000,5.7018 4.6222,10.3241 10.3241 10.3241h 106.6820 c 5.7018,0.0000 10.3241,-4.6222 10.3241 -10.3241Z"/>
  </g>
  <defs>
  </defs>
  <g stroke-linejoin="miter" stroke-opacity="1.0" fill-opacity="1.0" font-size="34.41353599082305px" stroke="rgb(0,0,0)" stroke-width="2.3034194852265046" fill="rgb(0,0,0)" stroke-linecap="butt" stroke-miterlimit="10.0">
    <text dominant-baseline="middle" transform="matrix(1.0000,0.0000,0.0000,1.0000,737.6541,172.5839)" stroke="none" text-anchor="middle">0 | 1
    </text>
  </g>
  <defs>
  </defs>
  <g stroke-linejoin="miter" stroke-opacity="1.0" fill-opacity="1.0" stroke="rgb(0,0,0)" stroke-width="2.3034194852265046" fill="rgb(255,215,0)" stroke-linecap="butt" stroke-miterlimit="10.0">
    <path d="M 938.9733,115.8015 v -24.0895 c 0.0000,-5.7018 -4.6222,-10.3241 -10.3241 -10.3241h -106.6820 c -5.7018,-0.0000 -10.3241,4.6222 -10.3241 10.3241v 24.0895 c -0.0000,5.7018 4.6222,10.3241 10.3241 10.3241h 106.6820 c 5.7018,0.0000 10.3241,-4.6222 10.3241 -10.3241Z"/>
  </g>
  <defs>
  </defs>
  <g stroke-linejoin="miter" stroke-opacity="1.0" fill-opacity="1.0" font-size="34.41353599082305px" stroke="rgb(0,0,0)" stroke-width="2.3034194852265046" fill="rgb(0,0,0)" stroke-linecap="butt" stroke-miterlimit="10.0">
    <text dominant-baseline="middle" transform="matrix(1.0000,0.0000,0.0000,1.0000,875.3083,103.7568)" stroke="none" text-anchor="middle">0 | 1
    </text>
  </g>
  <defs>
  </defs>
  <g stroke-linejoin="miter" stroke-opacity="1.0" fill-opacity="0.0" stroke="rgb(0,0,0)" stroke-width="2.3034194852265046" fill="rgb(0,0,0)" stroke-linecap="butt" stroke-miterlimit="10.0">
    <path d="M 324.6917,103.7568 l 137.6541,68.8271 "/>
  </g>
  <defs>
  </defs>
  <g stroke-linejoin="miter" stroke-opacity="1.0" fill-opacity="0.0" stroke="rgb(0,0,0)" stroke-width="2.3034194852265046" fill="rgb(0,0,0)" stroke-linecap="butt" stroke-miterlimit="10.0">
    <path d="M 324.6917,103.7568 l -137.6541,68.8271 "/>
  </g>
  <defs>
  </defs>
  <g stroke-linejoin="miter" stroke-opacity="1.0" fill-opacity="0.0" stroke="rgb(0,0,0)" stroke-width="2.3034194852265046" fill="rgb(0,0,0)" stroke-linecap="butt" stroke-miterlimit="10.0">
    <path d="M 462.3459,172.5839 l 68.8271,68.8271 "/>
  </g>
  <defs>
  </defs>
  <g stroke-linejoin="miter" stroke-opacity="1.0" fill-opacity="0.0" stroke="rgb(0,0,0)" stroke-width="2.3034194852265046" fill="rgb(0,0,0)" stroke-linecap="butt" stroke-miterlimit="10.0">
    <path d="M 462.3459,172.5839 l -68.8271,68.8271 "/>
  </g>
  <defs>
  </defs>
  <g stroke-linejoin="miter" stroke-opacity="1.0" fill-opacity="1.0" stroke="rgb(0,0,0)" stroke-width="2.3034194852265046" fill="rgb(255,215,0)" stroke-linecap="butt" stroke-miterlimit="10.0">
    <path d="M 594.8380,253.4557 v -24.0895 c 0.0000,-5.7018 -4.6222,-10.3241 -10.3241 -10.3241h -106.6820 c -5.7018,-0.0000 -10.3241,4.6222 -10.3241 10.3241v 24.0895 c -0.0000,5.7018 4.6222,10.3241 10.3241 10.3241h 106.6820 c 5.7018,0.0000 10.3241,-4.6222 10.3241 -10.3241Z"/>
  </g>
  <defs>
  </defs>
  <g stroke-linejoin="miter" stroke-opacity="1.0" fill-opacity="1.0" font-size="34.41353599082305px" stroke="rgb(0,0,0)" stroke-width="2.3034194852265046" fill="rgb(0,0,0)" stroke-linecap="butt" stroke-miterlimit="10.0">
    <text dominant-baseline="middle" transform="matrix(1.0000,0.0000,0.0000,1.0000,531.1729,241.4110)" stroke="none" text-anchor="middle">011 -&gt; D
    </text>
  </g>
  <defs>
  </defs>
  <g stroke-linejoin="miter" stroke-opacity="1.0" fill-opacity="1.0" stroke="rgb(0,0,0)" stroke-width="2.3034194852265046" fill="rgb(255,215,0)" stroke-linecap="butt" stroke-miterlimit="10.0">
    <path d="M 457.1838,253.4557 v -24.0895 c 0.0000,-5.7018 -4.6222,-10.3241 -10.3241 -10.3241h -106.6820 c -5.7018,-0.0000 -10.3241,4.6222 -10.3241 10.3241v 24.0895 c -0.0000,5.7018 4.6222,10.3241 10.3241 10.3241h 106.6820 c 5.7018,0.0000 10.3241,-4.6222 10.3241 -10.3241Z"/>
  </g>
  <defs>
  </defs>
  <g stroke-linejoin="miter" stroke-opacity="1.0" fill-opacity="1.0" font-size="34.41353599082305px" stroke="rgb(0,0,0)" stroke-width="2.3034194852265046" fill="rgb(0,0,0)" stroke-linecap="butt" stroke-miterlimit="10.0">
    <text dominant-baseline="middle" transform="matrix(1.0000,0.0000,0.0000,1.0000,393.5188,241.4110)" stroke="none" text-anchor="middle">010 -&gt; C
    </text>
  </g>
  <defs>
  </defs>
  <g stroke-linejoin="miter" stroke-opacity="1.0" fill-opacity="1.0" stroke="rgb(0,0,0)" stroke-width="2.3034194852265046" fill="rgb(255,215,0)" stroke-linecap="butt" stroke-miterlimit="10.0">
    <path d="M 526.0109,184.6286 v -24.0895 c 0.0000,-5.7018 -4.6222,-10.3241 -10.3241 -10.3241h -106.6820 c -5.7018,-0.0000 -10.3241,4.6222 -10.3241 10.3241v 24.0895 c -0.0000,5.7018 4.6222,10.3241 10.3241 10.3241h 106.6820 c 5.7018,0.0000 10.3241,-4.6222 10.3241 -10.3241Z"/>
  </g>
  <defs>
  </defs>
  <g stroke-linejoin="miter" stroke-opacity="1.0" fill-opacity="1.0" font-size="34.41353599082305px" stroke="rgb(0,0,0)" stroke-width="2.3034194852265046" fill="rgb(0,0,0)" stroke-linecap="butt" stroke-miterlimit="10.0">
    <text dominant-baseline="middle" transform="matrix(1.0000,0.0000,0.0000,1.0000,462.3459,172.5839)" stroke="none" text-anchor="middle">0 | 1
    </text>
  </g>
  <defs>
  </defs>
  <g stroke-linejoin="miter" stroke-opacity="1.0" fill-opacity="0.0" stroke="rgb(0,0,0)" stroke-width="2.3034194852265046" fill="rgb(0,0,0)" stroke-linecap="butt" stroke-miterlimit="10.0">
    <path d="M 187.0376,172.5839 l 68.8271,68.8271 "/>
  </g>
  <defs>
  </defs>
  <g stroke-linejoin="miter" stroke-opacity="1.0" fill-opacity="0.0" stroke="rgb(0,0,0)" stroke-width="2.3034194852265046" fill="rgb(0,0,0)" stroke-linecap="butt" stroke-miterlimit="10.0">
    <path d="M 187.0376,172.5839 l -68.8271,68.8271 "/>
  </g>
  <defs>
  </defs>
  <g stroke-linejoin="miter" stroke-opacity="1.0" fill-opacity="1.0" stroke="rgb(0,0,0)" stroke-width="2.3034194852265046" fill="rgb(255,215,0)" stroke-linecap="butt" stroke-miterlimit="10.0">
    <path d="M 319.5297,253.4557 v -24.0895 c 0.0000,-5.7018 -4.6222,-10.3241 -10.3241 -10.3241h -106.6820 c -5.7018,-0.0000 -10.3241,4.6222 -10.3241 10.3241v 24.0895 c -0.0000,5.7018 4.6222,10.3241 10.3241 10.3241h 106.6820 c 5.7018,0.0000 10.3241,-4.6222 10.3241 -10.3241Z"/>
  </g>
  <defs>
  </defs>
  <g stroke-linejoin="miter" stroke-opacity="1.0" fill-opacity="1.0" font-size="34.41353599082305px" stroke="rgb(0,0,0)" stroke-width="2.3034194852265046" fill="rgb(0,0,0)" stroke-linecap="butt" stroke-miterlimit="10.0">
    <text dominant-baseline="middle" transform="matrix(1.0000,0.0000,0.0000,1.0000,255.8646,241.4110)" stroke="none" text-anchor="middle">001 -&gt; B
    </text>
  </g>
  <defs>
  </defs>
  <g stroke-linejoin="miter" stroke-opacity="1.0" fill-opacity="1.0" stroke="rgb(0,0,0)" stroke-width="2.3034194852265046" fill="rgb(255,215,0)" stroke-linecap="butt" stroke-miterlimit="10.0">
    <path d="M 181.8755,253.4557 v -24.0895 c 0.0000,-5.7018 -4.6222,-10.3241 -10.3241 -10.3241h -106.6820 c -5.7018,-0.0000 -10.3241,4.6222 -10.3241 10.3241v 24.0895 c -0.0000,5.7018 4.6222,10.3241 10.3241 10.3241h 106.6820 c 5.7018,0.0000 10.3241,-4.6222 10.3241 -10.3241Z"/>
  </g>
  <defs>
  </defs>
  <g stroke-linejoin="miter" stroke-opacity="1.0" fill-opacity="1.0" font-size="34.41353599082305px" stroke="rgb(0,0,0)" stroke-width="2.3034194852265046" fill="rgb(0,0,0)" stroke-linecap="butt" stroke-miterlimit="10.0">
    <text dominant-baseline="middle" transform="matrix(1.0000,0.0000,0.0000,1.0000,118.2105,241.4110)" stroke="none" text-anchor="middle">000 -&gt; A
    </text>
  </g>
  <defs>
  </defs>
  <g stroke-linejoin="miter" stroke-opacity="1.0" fill-opacity="1.0" stroke="rgb(0,0,0)" stroke-width="2.3034194852265046" fill="rgb(255,215,0)" stroke-linecap="butt" stroke-miterlimit="10.0">
    <path d="M 250.7026,184.6286 v -24.0895 c 0.0000,-5.7018 -4.6222,-10.3241 -10.3241 -10.3241h -106.6820 c -5.7018,-0.0000 -10.3241,4.6222 -10.3241 10.3241v 24.0895 c -0.0000,5.7018 4.6222,10.3241 10.3241 10.3241h 106.6820 c 5.7018,0.0000 10.3241,-4.6222 10.3241 -10.3241Z"/>
  </g>
  <defs>
  </defs>
  <g stroke-linejoin="miter" stroke-opacity="1.0" fill-opacity="1.0" font-size="34.41353599082305px" stroke="rgb(0,0,0)" stroke-width="2.3034194852265046" fill="rgb(0,0,0)" stroke-linecap="butt" stroke-miterlimit="10.0">
    <text dominant-baseline="middle" transform="matrix(1.0000,0.0000,0.0000,1.0000,187.0376,172.5839)" stroke="none" text-anchor="middle">0 | 1
    </text>
  </g>
  <defs>
  </defs>
  <g stroke-linejoin="miter" stroke-opacity="1.0" fill-opacity="1.0" stroke="rgb(0,0,0)" stroke-width="2.3034194852265046" fill="rgb(255,215,0)" stroke-linecap="butt" stroke-miterlimit="10.0">
    <path d="M 388.3568,115.8015 v -24.0895 c 0.0000,-5.7018 -4.6222,-10.3241 -10.3241 -10.3241h -106.6820 c -5.7018,-0.0000 -10.3241,4.6222 -10.3241 10.3241v 24.0895 c -0.0000,5.7018 4.6222,10.3241 10.3241 10.3241h 106.6820 c 5.7018,0.0000 10.3241,-4.6222 10.3241 -10.3241Z"/>
  </g>
  <defs>
  </defs>
  <g stroke-linejoin="miter" stroke-opacity="1.0" fill-opacity="1.0" font-size="34.41353599082305px" stroke="rgb(0,0,0)" stroke-width="2.3034194852265046" fill="rgb(0,0,0)" stroke-linecap="butt" stroke-miterlimit="10.0">
    <text dominant-baseline="middle" transform="matrix(1.0000,0.0000,0.0000,1.0000,324.6917,103.7568)" stroke="none" text-anchor="middle">0 | 1
    </text>
  </g>
  <defs>
  </defs>
  <g stroke-linejoin="miter" stroke-opacity="1.0" fill-opacity="1.0" stroke="rgb(0,0,0)" stroke-width="2.3034194852265046" fill="rgb(255,215,0)" stroke-linecap="butt" stroke-miterlimit="10.0">
    <path d="M 663.6650,46.9745 v -24.0895 c 0.0000,-5.7018 -4.6222,-10.3241 -10.3241 -10.3241h -106.6820 c -5.7018,-0.0000 -10.3241,4.6222 -10.3241 10.3241v 24.0895 c -0.0000,5.7018 4.6222,10.3241 10.3241 10.3241h 106.6820 c 5.7018,0.0000 10.3241,-4.6222 10.3241 -10.3241Z"/>
  </g>
  <defs>
  </defs>
  <g stroke-linejoin="miter" stroke-opacity="1.0" fill-opacity="1.0" font-size="34.41353599082305px" stroke="rgb(0,0,0)" stroke-width="2.3034194852265046" fill="rgb(0,0,0)" stroke-linecap="butt" stroke-miterlimit="10.0">
    <text dominant-baseline="middle" transform="matrix(1.0000,0.0000,0.0000,1.0000,600.0000,34.9297)" stroke="none" text-anchor="middle">0 | 1
    </text>
  </g>
</svg>