<?xml version="1.0" encoding="UTF-8"?>
<!DOCTYPE svg PUBLIC "-//W3C//DTD SVG 1.1//EN"
    "http://www.w3.org/Graphics/SVG/1.1/DTD/svg11.dtd">
<svg xmlns="http://www.w3.org/2000/svg" height="444.6701" stroke-opacity="1" viewBox="0 0 1200 445" font-size="1" width="1200.0000" xmlns:xlink="http://www.w3.org/1999/xlink" stroke="rgb(0,0,0)" version="1.1">
  <defs>
  </defs>
  <defs>
  </defs>
  <g stroke-linejoin="miter" stroke-opacity="1.0" fill-opacity="0.0" stroke="rgb(0,0,0)" stroke-width="2.9219282973097216" fill="rgb(0,0,0)" stroke-linecap="butt" stroke-miterlimit="10.0">
    <path d="M 489.2478,56.2067 l 221.5044,110.7522 "/>
  </g>
  <defs>
  </defs>
  <g stroke-linejoin="miter" stroke-opacity="1.0" fill-opacity="0.0" stroke="rgb(0,0,0)" stroke-width="2.9219282973097216" fill="rgb(0,0,0)" stroke-linecap="butt" stroke-miterlimit="10.0">
    <path d="M 489.2478,56.2067 l -221.5044,110.7522 "/>
  </g>
  <defs>
  </defs>
  <g stroke-linejoin="miter" stroke-opacity="1.0" fill-opacity="0.0" stroke="rgb(0,0,0)" stroke-width="2.9219282973097216" fill="rgb(0,0,0)" stroke-linecap="butt" stroke-miterlimit="10.0">
    <path d="M 710.7522,166.9589 l 221.5044,110.7522 "/>
  </g>
  <defs>
  </defs>
  <g stroke-linejoin="miter" stroke-opacity="1.0" fill-opacity="0.0" stroke="rgb(0,0,0)" stroke-width="2.9219282973097216" fill="rgb(0,0,0)" stroke-linecap="butt" stroke-miterlimit="10.0">
    <path d="M 710.7522,166.9589 l -110.7522,110.7522 "/>
  </g>
  <defs>
  </defs>
  <g stroke-linejoin="miter" stroke-opacity="1.0" fill-opacity="0.0" stroke="rgb(0,0,0)" stroke-width="2.9219282973097216" fill="rgb(0,0,0)" stroke-linecap="butt" stroke-miterlimit="10.0">
    <path d="M 932.2566,277.7111 l 110.7522,110.7522 "/>
  </g>
  <defs>
  </defs>
  <g stroke-linejoin="miter" stroke-opacity="1.0" fill-opacity="0.0" stroke="rgb(0,0,0)" stroke-width="2.9219282973097216" fill="rgb(0,0,0)" stroke-linecap="butt" stroke-miterlimit="10.0">
    <path d="M 932.2566,277.7111 l -110.7522,110.7522 "/>
  </g>
  <defs>
  </defs>
  <g stroke-linejoin="miter" stroke-opacity="1.0" fill-opacity="1.0" stroke="rgb(0,0,0)" stroke-width="2.9219282973097216" fill="rgb(255,215,0)" stroke-linecap="butt" stroke-miterlimit="10.0">
    <path d="M 1145.4545,407.8449 v -38.7633 c 0.0000,-9.1750 -7.4378,-16.6128 -16.6128 -16.6128h -171.6659 c -9.1750,-0.0000 -16.6128,7.4378 -16.6128 16.6128v 38.7633 c -0.0000,9.1750 7.4378,16.6128 16.6128 16.6128h 171.6659 c 9.1750,0.0000 16.6128,-7.4378 16.6128 -16.6128Z"/>
  </g>
  <defs>
  </defs>
  <g stroke-linejoin="miter" stroke-opacity="1.0" fill-opacity="1.0" font-size="55.37609598523303px" stroke="rgb(0,0,0)" stroke-width="2.9219282973097216" fill="rgb(0,0,0)" stroke-linecap="butt" stroke-miterlimit="10.0">
    <text dominant-baseline="middle" transform="matrix(1.0000,0.0000,0.0000,1.0000,1043.0088,388.4633)" stroke="none" text-anchor="middle">111 -&gt; E
    </text>
  </g>
  <defs>
  </defs>
  <g stroke-linejoin="miter" stroke-opacity="1.0" fill-opacity="1.0" stroke="rgb(0,0,0)" stroke-width="2.9219282973097216" fill="rgb(255,215,0)" stroke-linecap="butt" stroke-miterlimit="10.0">
    <path d="M 923.9502,407.8449 v -38.7633 c 0.0000,-9.1750 -7.4378,-16.6128 -16.6128 -16.6128h -171.6659 c -9.1750,-0.0000 -16.6128,7.4378 -16.6128 16.6128v 38.7633 c -0.0000,9.1750 7.4378,16.6128 16.6128 16.6128h 171.6659 c 9.1750,0.0000 16.6128,-7.4378 16.6128 -16.6128Z"/>
  </g>
  <defs>
  </defs>
  <g stroke-linejoin="miter" stroke-opacity="1.0" fill-opacity="1.0" font-size="55.37609598523303px" stroke="rgb(0,0,0)" stroke-width="2.9219282973097216" fill="rgb(0,0,0)" stroke-linecap="butt" stroke-miterlimit="10.0">
    <text dominant-baseline="middle" transform="matrix(1.0000,0.0000,0.0000,1.0000,821.5044,388.4633)" stroke="none" text-anchor="middle">110 -&gt; D
    </text>
  </g>
  <defs>
  </defs>
  <g stroke-linejoin="miter" stroke-opacity="1.0" fill-opacity="1.0" stroke="rgb(0,0,0)" stroke-width="2.9219282973097216" fill="rgb(255,215,0)" stroke-linecap="butt" stroke-miterlimit="10.0">
    <path d="M 1034.7024,297.0928 v -38.7633 c 0.0000,-9.1750 -7.4378,-16.6128 -16.6128 -16.6128h -171.6659 c -9.1750,-0.0000 -16.6128,7.4378 -16.6128 16.6128v 38.7633 c -0.0000,9.1750 7.4378,16.6128 16.6128 16.6128h 171.6659 c 9.1750,0.0000 16.6128,-7.4378 16.6128 -16.6128Z"/>
  </g>
  <defs>
  </defs>
  <g stroke-linejoin="miter" stroke-opacity="1.0" fill-opacity="1.0" font-size="55.37609598523303px" stroke="rgb(0,0,0)" stroke-width="2.9219282973097216" fill="rgb(0,0,0)" stroke-linecap="butt" stroke-miterlimit="10.0">
    <text dominant-baseline="middle" transform="matrix(1.0000,0.0000,0.0000,1.0000,932.2566,277.7111)" stroke="none" text-anchor="middle">0 | 1
    </text>
  </g>
  <defs>
  </defs>
  <g stroke-linejoin="miter" stroke-opacity="1.0" fill-opacity="1.0" stroke="rgb(0,0,0)" stroke-width="2.9219282973097216" fill="rgb(255,215,0)" stroke-linecap="butt" stroke-miterlimit="10.0">
    <path d="M 702.4458,297.0928 v -38.7633 c 0.0000,-9.1750 -7.4378,-16.6128 -16.6128 -16.6128h -171.6659 c -9.1750,-0.0000 -16.6128,7.4378 -16.6128 16.6128v 38.7633 c -0.0000,9.1750 7.4378,16.6128 16.6128 16.6128h 171.6659 c 9.1750,0.0000 16.6128,-7.4378 16.6128 -16.6128Z"/>
  </g>
  <defs>
  </defs>
  <g stroke-linejoin="miter" stroke-opacity="1.0" fill-opacity="1.0" font-size="55.37609598523303px" stroke="rgb(0,0,0)" stroke-width="2.9219282973097216" fill="rgb(0,0,0)" stroke-linecap="butt" stroke-miterlimit="10.0">
    <text dominant-baseline="middle" transform="matrix(1.0000,0.0000,0.0000,1.0000,600.0000,277.7111)" stroke="none" text-anchor="middle">10 -&gt; C
    </text>
  </g>
  <defs>
  </defs>
  <g stroke-linejoin="miter" stroke-opacity="1.0" fill-opacity="1.0" stroke="rgb(0,0,0)" stroke-width="2.9219282973097216" fill="rgb(255,215,0)" stroke-linecap="butt" stroke-miterlimit="10.0">
    <path d="M 813.1980,186.3406 v -38.7633 c 0.0000,-9.1750 -7.4378,-16.6128 -16.6128 -16.6128h -171.6659 c -9.1750,-0.0000 -16.6128,7.4378 -16.6128 16.6128v 38.7633 c -0.0000,9.1750 7.4378,16.6128 16.6128 16.6128h 171.6659 c 9.1750,0.0000 16.6128,-7.4378 16.6128 -16.6128Z"/>
  </g>
  <defs>
  </defs>
  <g stroke-linejoin="miter" stroke-opacity="1.0" fill-opacity="1.0" font-size="55.37609598523303px" stroke="rgb(0,0,0)" stroke-width="2.9219282973097216" fill="rgb(0,0,0)" stroke-linecap="butt" stroke-miterlimit="10.0">
    <text dominant-baseline="middle" transform="matrix(1.0000,0.0000,0.0000,1.0000,710.7522,166.9589)" stroke="none" text-anchor="middle">0 | 1
    </text>
  </g>
  <defs>
  </defs>
  <g stroke-linejoin="miter" stroke-opacity="1.0" fill-opacity="0.0" stroke="rgb(0,0,0)" stroke-width="2.9219282973097216" fill="rgb(0,0,0)" stroke-linecap="butt" stroke-miterlimit="10.0">
    <path d="M 267.7434,166.9589 l 110.7522,110.7522 "/>
  </g>
  <defs>
  </defs>
  <g stroke-linejoin="miter" stroke-opacity="1.0" fill-opacity="0.0" stroke="rgb(0,0,0)" stroke-width="2.9219282973097216" fill="rgb(0,0,0)" stroke-linecap="butt" stroke-miterlimit="10.0">
    <path d="M 267.7434,166.9589 l -110.7522,110.7522 "/>
  </g>
  <defs>
  </defs>
  <g stroke-linejoin="miter" stroke-opacity="1.0" fill-opacity="1.0" stroke="rgb(0,0,0)" stroke-width="2.9219282973097216" fill="rgb(255,215,0)" stroke-linecap="butt" stroke-miterlimit="10.0">
    <path d="M 480.9414,297.0928 v -38.7633 c 0.0000,-9.1750 -7.4378,-16.6128 -16.6128 -16.6128h -171.6659 c -9.1750,-0.0000 -16.6128,7.4378 -16.6128 16.6128v 38.7633 c -0.0000,9.1750 7.4378,16.6128 16.6128 16.6128h 171.6659 c 9.1750,0.0000 16.6128,-7.4378 16.6128 -16.6128Z"/>
  </g>
  <defs>
  </defs>
  <g stroke-linejoin="miter" stroke-opacity="1.0" fill-opacity="1.0" font-size="55.37609598523303px" stroke="rgb(0,0,0)" stroke-width="2.9219282973097216" fill="rgb(0,0,0)" stroke-linecap="butt" stroke-miterlimit="10.0">
    <text dominant-baseline="middle" transform="matrix(1.0000,0.0000,0.0000,1.0000,378.4956,277.7111)" stroke="none" text-anchor="middle">01 -&gt; B
    </text>
  </g>
  <defs>
  </defs>
  <g stroke-linejoin="miter" stroke-opacity="1.0" fill-opacity="1.0" stroke="rgb(0,0,0)" stroke-width="2.9219282973097216" fill="rgb(255,215,0)" stroke-linecap="butt" stroke-miterlimit="10.0">
    <path d="M 259.4370,297.0928 v -38.7633 c 0.0000,-9.1750 -7.4378,-16.6128 -16.6128 -16.6128h -171.6659 c -9.1750,-0.0000 -16.6128,7.4378 -16.6128 16.6128v 38.7633 c -0.0000,9.1750 7.4378,16.6128 16.6128 16.6128h 171.6659 c 9.1750,0.0000 16.6128,-7.4378 16.6128 -16.6128Z"/>
  </g>
  <defs>
  </defs>
  <g stroke-linejoin="miter" stroke-opacity="1.0" fill-opacity="1.0" font-size="55.37609598523303px" stroke="rgb(0,0,0)" stroke-width="2.9219282973097216" fill="rgb(0,0,0)" stroke-linecap="butt" stroke-miterlimit="10.0">
    <text dominant-baseline="middle" transform="matrix(1.0000,0.0000,0.0000,1.0000,156.9912,277.7111)" stroke="none" text-anchor="middle">00 -&gt; A
    </text>
  </g>
  <defs>
  </defs>
  <g stroke-linejoin="miter" stroke-opacity="1.0" fill-opacity="1.0" stroke="rgb(0,0,0)" stroke-width="2.9219282973097216" fill="rgb(255,215,0)" stroke-linecap="butt" stroke-miterlimit="10.0">
    <path d="M 370.1892,186.3406 v -38.7633 c 0.0000,-9.1750 -7.4378,-16.6128 -16.6128 -16.6128h -171.6659 c -9.1750,-0.0000 -16.6128,7.4378 -16.6128 16.6128v 38.7633 c -0.0000,9.1750 7.4378,16.6128 16.6128 16.6128h 171.6659 c 9.1750,0.0000 16.6128,-7.4378 16.6128 -16.6128Z"/>
  </g>
  <defs>
  </defs>
  <g stroke-linejoin="miter" stroke-opacity="1.0" fill-opacity="1.0" font-size="55.37609598523303px" stroke="rgb(0,0,0)" stroke-width="2.9219282973097216" fill="rgb(0,0,0)" stroke-linecap="butt" stroke-miterlimit="10.0">
    <text dominant-baseline="middle" transform="matrix(1.0000,0.0000,0.0000,1.0000,267.7434,166.9589)" stroke="none" text-anchor="middle">0 | 1
    </text>
  </g>
  <defs>
  </defs>
  <g stroke-linejoin="miter" stroke-opacity="1.0" fill-opacity="1.0" stroke="rgb(0,0,0)" stroke-width="2.9219282973097216" fill="rgb(255,215,0)" stroke-linecap="butt" stroke-miterlimit="10.0">
    <path d="M 591.6936,75.5884 v -38.7633 c 0.0000,-9.1750 -7.4378,-16.6128 -16.6128 -16.6128h -171.6659 c -9.1750,-0.0000 -16.6128,7.4378 -16.6128 16.6128v 38.7633 c -0.0000,9.1750 7.4378,16.6128 16.6128 16.6128h 171.6659 c 9.1750,0.0000 16.6128,-7.4378 16.6128 -16.6128Z"/>
  </g>
  <defs>
  </defs>
  <g stroke-linejoin="miter" stroke-opacity="1.0" fill-opacity="1.0" font-size="55.37609598523303px" stroke="rgb(0,0,0)" stroke-width="2.9219282973097216" fill="rgb(0,0,0)" stroke-linecap="butt" stroke-miterlimit="10.0">
    <text dominant-baseline="middle" transform="matrix(1.0000,0.0000,0.0000,1.0000,489.2478,56.2067)" stroke="none" text-anchor="middle">0 | 1
    </text>
  </g>
</svg>